<svg width="136" height="46" viewBox="0 0 136 46" fill="none" xmlns="http://www.w3.org/2000/svg">
<path d="M84.3621 45.3466C82.9643 45.3466 81.7598 45.0795 80.7484 44.5455C79.7427 44.0057 78.9672 43.233 78.4217 42.2273C77.8819 41.2159 77.6121 40.0057 77.6121 38.5966C77.6121 37.2443 77.8848 36.0625 78.4302 35.0511C78.9757 34.0398 79.7456 33.2528 80.7399 32.6903C81.7342 32.1278 82.9075 31.8466 84.2598 31.8466C85.2484 31.8466 86.1433 32 86.9444 32.3068C87.7456 32.6136 88.4302 33.0597 88.9984 33.6449C89.5666 34.2244 90.0041 34.929 90.3109 35.7585C90.6177 36.5881 90.7711 37.5227 90.7711 38.5625V39.6534H79.078V37.0625H86.4416C86.4359 36.6875 86.3393 36.358 86.1518 36.0739C85.97 35.7841 85.7229 35.5597 85.4104 35.4006C85.1035 35.2358 84.7541 35.1534 84.3621 35.1534C83.9814 35.1534 83.6319 35.2358 83.3138 35.4006C82.9956 35.5597 82.7399 35.7812 82.5467 36.0653C82.3592 36.3494 82.2598 36.6818 82.2484 37.0625V39.858C82.2484 40.2784 82.3365 40.6534 82.5126 40.983C82.6888 41.3125 82.9416 41.571 83.2711 41.7585C83.6007 41.946 83.9984 42.0398 84.4643 42.0398C84.7882 42.0398 85.0836 41.9943 85.3507 41.9034C85.6234 41.8125 85.8564 41.6818 86.0496 41.5114C86.2427 41.3352 86.3848 41.125 86.4757 40.8807H90.7711C90.6234 41.7898 90.274 42.5795 89.7229 43.25C89.1717 43.9148 88.4416 44.4318 87.5325 44.8011C86.6291 45.1648 85.5723 45.3466 84.3621 45.3466Z" fill="#006747"/>
<path d="M69.8415 45.3466C68.421 45.3466 67.2051 45.0653 66.1937 44.5028C65.1824 43.9347 64.4068 43.1449 63.867 42.1335C63.3273 41.1165 63.0574 39.9375 63.0574 38.5966C63.0574 37.2557 63.3273 36.0795 63.867 35.0682C64.4068 34.0511 65.1824 33.2614 66.1937 32.6989C67.2051 32.1307 68.421 31.8466 69.8415 31.8466C71.1256 31.8466 72.2364 32.0795 73.1739 32.5455C74.117 33.0057 74.8471 33.6591 75.3642 34.5057C75.8812 35.3466 76.1426 36.3352 76.1483 37.4716H71.7846C71.7221 36.7841 71.5233 36.2614 71.1881 35.9034C70.8585 35.5398 70.4324 35.358 69.9096 35.358C69.5006 35.358 69.1426 35.4773 68.8358 35.7159C68.529 35.9489 68.2903 36.304 68.1199 36.7812C67.9494 37.2528 67.8642 37.8466 67.8642 38.5625C67.8642 39.2784 67.9494 39.875 68.1199 40.3523C68.2903 40.8239 68.529 41.179 68.8358 41.4176C69.1426 41.6506 69.5006 41.767 69.9096 41.767C70.2562 41.767 70.5631 41.6875 70.8301 41.5284C71.0972 41.3636 71.3131 41.125 71.4778 40.8125C71.6483 40.4943 71.7506 40.108 71.7846 39.6534H76.1483C76.1312 40.8068 75.867 41.8125 75.3557 42.6705C74.8443 43.5227 74.1199 44.1818 73.1824 44.6477C72.2506 45.1136 71.1369 45.3466 69.8415 45.3466Z" fill="#006747"/>
<path d="M56.4331 45.108V32.017H61.1377V45.108H56.4331ZM58.7854 30.6534C58.149 30.6534 57.6036 30.4432 57.149 30.0227C56.6945 29.6023 56.4672 29.0966 56.4672 28.5057C56.4672 27.9148 56.6945 27.4091 57.149 26.9886C57.6036 26.5682 58.149 26.358 58.7854 26.358C59.4274 26.358 59.9729 26.5682 60.4217 26.9886C60.8763 27.4091 61.1036 27.9148 61.1036 28.5057C61.1036 29.0966 60.8763 29.6023 60.4217 30.0227C59.9729 30.4432 59.4274 30.6534 58.7854 30.6534Z" fill="#006747"/>
<path d="M55.0952 32.017L50.6975 45.108H45.2429L40.8452 32.017H45.7884L47.902 40.6761H48.0384L50.152 32.017H55.0952Z" fill="#006747"/>
<path d="M31.0972 45.108V32.017H35.6653V34.5057H35.8017C36.0403 33.5852 36.4182 32.9119 36.9352 32.4858C37.458 32.0597 38.0688 31.8466 38.7676 31.8466C38.9722 31.8466 39.1739 31.8636 39.3727 31.8977C39.5773 31.9261 39.7733 31.9687 39.9608 32.0256V36.0398C39.7279 35.9602 39.4409 35.9006 39.1 35.8608C38.7591 35.821 38.4665 35.8011 38.2222 35.8011C37.7619 35.8011 37.3472 35.9062 36.9778 36.1165C36.6142 36.321 36.3273 36.6108 36.1171 36.9858C35.9068 37.3551 35.8017 37.7898 35.8017 38.2898V45.108H31.0972Z" fill="#006747"/>
<path d="M22.7683 45.3466C21.3706 45.3466 20.166 45.0795 19.1547 44.5455C18.149 44.0057 17.3734 43.233 16.828 42.2273C16.2882 41.2159 16.0183 40.0057 16.0183 38.5966C16.0183 37.2443 16.291 36.0625 16.8365 35.0511C17.3819 34.0398 18.1518 33.2528 19.1462 32.6903C20.1405 32.1278 21.3138 31.8466 22.666 31.8466C23.6547 31.8466 24.5496 32 25.3507 32.3068C26.1518 32.6136 26.8365 33.0597 27.4047 33.6449C27.9729 34.2244 28.4104 34.929 28.7172 35.7585C29.024 36.5881 29.1774 37.5227 29.1774 38.5625V39.6534H17.4842V37.0625H24.8479C24.8422 36.6875 24.7456 36.358 24.5581 36.0739C24.3763 35.7841 24.1291 35.5597 23.8166 35.4006C23.5098 35.2358 23.1604 35.1534 22.7683 35.1534C22.3876 35.1534 22.0382 35.2358 21.72 35.4006C21.4018 35.5597 21.1462 35.7812 20.953 36.0653C20.7655 36.3494 20.666 36.6818 20.6547 37.0625V39.858C20.6547 40.2784 20.7427 40.6534 20.9189 40.983C21.095 41.3125 21.3479 41.571 21.6774 41.7585C22.0069 41.946 22.4047 42.0398 22.8706 42.0398C23.1944 42.0398 23.4899 41.9943 23.7569 41.9034C24.0297 41.8125 24.2626 41.6818 24.4558 41.5114C24.649 41.3352 24.791 41.125 24.8819 40.8807H29.1774C29.0297 41.7898 28.6802 42.5795 28.1291 43.25C27.578 43.9148 26.8479 44.4318 25.9388 44.8011C25.0354 45.1648 23.9785 45.3466 22.7683 45.3466Z" fill="#006747"/>
<path d="M9.85227 33.108C9.80682 32.5398 9.59375 32.0966 9.21307 31.7784C8.83807 31.4602 8.26705 31.3011 7.5 31.3011C7.01136 31.3011 6.6108 31.3608 6.2983 31.4801C5.99148 31.5938 5.7642 31.75 5.61648 31.9489C5.46875 32.1477 5.39205 32.375 5.38636 32.6307C5.375 32.8409 5.41193 33.0313 5.49716 33.2017C5.58807 33.3665 5.73011 33.517 5.9233 33.6534C6.11648 33.7841 6.36364 33.9034 6.66477 34.0114C6.96591 34.1193 7.32386 34.2159 7.73864 34.3011L9.17045 34.608C10.1364 34.8125 10.9631 35.0824 11.6506 35.4176C12.3381 35.7528 12.9006 36.1477 13.3381 36.6023C13.7756 37.0511 14.0966 37.5568 14.3011 38.1193C14.5114 38.6818 14.6193 39.2955 14.625 39.9602C14.6193 41.108 14.3324 42.0795 13.7642 42.875C13.196 43.6705 12.3835 44.2756 11.3267 44.6903C10.2756 45.1051 9.01136 45.3125 7.53409 45.3125C6.01705 45.3125 4.69318 45.0881 3.5625 44.6392C2.4375 44.1903 1.5625 43.5 0.9375 42.5682C0.318182 41.6307 0.00568181 40.4318 0 38.9716H4.5C4.52841 39.5057 4.66193 39.9545 4.90057 40.3182C5.1392 40.6818 5.47443 40.9574 5.90625 41.1449C6.34375 41.3324 6.86364 41.4261 7.46591 41.4261C7.97159 41.4261 8.39489 41.3636 8.7358 41.2386C9.0767 41.1136 9.33523 40.9403 9.51136 40.7188C9.6875 40.4972 9.77841 40.2443 9.78409 39.9602C9.77841 39.6932 9.69034 39.4602 9.51989 39.2614C9.35511 39.0568 9.08239 38.875 8.7017 38.7159C8.32102 38.5511 7.80682 38.3977 7.15909 38.2557L5.42045 37.8807C3.875 37.5455 2.65625 36.9858 1.7642 36.2017C0.877841 35.4119 0.4375 34.3352 0.443182 32.9716C0.4375 31.8636 0.732955 30.8949 1.32955 30.0653C1.93182 29.2301 2.7642 28.5795 3.8267 28.1136C4.89489 27.6477 6.11932 27.4148 7.5 27.4148C8.90909 27.4148 10.1278 27.6506 11.1562 28.1222C12.1847 28.5938 12.9773 29.2585 13.5341 30.1165C14.0966 30.9688 14.3807 31.9659 14.3864 33.108H9.85227Z" fill="#006747"/>
<path d="M125.391 23.017C124.851 23.017 124.337 22.9744 123.848 22.8892C123.359 22.8097 122.93 22.6989 122.561 22.5568L123.584 19.2159C123.97 19.3523 124.322 19.4403 124.641 19.4801C124.964 19.5199 125.24 19.4972 125.467 19.4119C125.7 19.3267 125.868 19.1648 125.97 18.9261L126.072 18.6875L121.47 5.01704H126.379L128.493 14.0852H128.629L130.777 5.01704H135.72L130.947 19.1989C130.709 19.9205 130.362 20.5682 129.908 21.142C129.459 21.7216 128.868 22.179 128.135 22.5142C127.402 22.8494 126.487 23.017 125.391 23.017Z" fill="#006747"/>
<path d="M114.279 18.3466C112.859 18.3466 111.643 18.0653 110.631 17.5028C109.62 16.9347 108.844 16.1449 108.305 15.1335C107.765 14.1165 107.495 12.9375 107.495 11.5966C107.495 10.2557 107.765 9.07955 108.305 8.06818C108.844 7.05114 109.62 6.26137 110.631 5.69887C111.643 5.13068 112.859 4.84659 114.279 4.84659C115.563 4.84659 116.674 5.07955 117.611 5.54546C118.555 6.00568 119.285 6.65909 119.802 7.50568C120.319 8.34659 120.58 9.33523 120.586 10.4716H116.222C116.16 9.78409 115.961 9.26137 115.626 8.90341C115.296 8.53978 114.87 8.35796 114.347 8.35796C113.938 8.35796 113.58 8.47728 113.273 8.71591C112.967 8.94887 112.728 9.30398 112.557 9.78125C112.387 10.2528 112.302 10.8466 112.302 11.5625C112.302 12.2784 112.387 12.875 112.557 13.3523C112.728 13.8239 112.967 14.179 113.273 14.4176C113.58 14.6506 113.938 14.767 114.347 14.767C114.694 14.767 115.001 14.6875 115.268 14.5284C115.535 14.3636 115.751 14.125 115.915 13.8125C116.086 13.4943 116.188 13.108 116.222 12.6534H120.586C120.569 13.8068 120.305 14.8125 119.793 15.6705C119.282 16.5227 118.557 17.1818 117.62 17.6477C116.688 18.1136 115.575 18.3466 114.279 18.3466Z" fill="#006747"/>
<path d="M97.1611 10.7443V18.108H92.4566V5.01705H96.9225V7.50568H97.0589C97.343 6.67614 97.843 6.02557 98.5589 5.55398C99.2805 5.08239 100.121 4.84659 101.082 4.84659C102.008 4.84659 102.812 5.05966 103.494 5.4858C104.181 5.90625 104.712 6.4858 105.087 7.22443C105.468 7.96307 105.655 8.80682 105.65 9.75569V18.108H100.945V10.7443C100.951 10.0966 100.786 9.58807 100.451 9.21875C100.121 8.84944 99.6611 8.66478 99.0702 8.66478C98.6839 8.66478 98.3458 8.75 98.056 8.92046C97.7719 9.08523 97.5532 9.32387 97.3998 9.63637C97.2464 9.94318 97.1668 10.3125 97.1611 10.7443Z" fill="#006747"/>
<path d="M84.1278 18.3466C82.73 18.3466 81.5255 18.0795 80.5141 17.5455C79.5085 17.0057 78.7329 16.233 78.1874 15.2273C77.6477 14.2159 77.3778 13.0057 77.3778 11.5966C77.3778 10.2443 77.6505 9.0625 78.196 8.05114C78.7414 7.03978 79.5113 6.25284 80.5056 5.69034C81.4999 5.12784 82.6732 4.84659 84.0255 4.84659C85.0141 4.84659 85.909 5 86.7102 5.30682C87.5113 5.61364 88.196 6.05966 88.7641 6.64489C89.3323 7.22444 89.7698 7.92898 90.0766 8.75853C90.3835 9.58807 90.5369 10.5227 90.5369 11.5625V12.6534H78.8437V10.0625H86.2073C86.2016 9.6875 86.105 9.35796 85.9175 9.07387C85.7357 8.78409 85.4886 8.55966 85.1761 8.40057C84.8693 8.2358 84.5198 8.15341 84.1278 8.15341C83.7471 8.15341 83.3977 8.2358 83.0795 8.40057C82.7613 8.55966 82.5056 8.78125 82.3124 9.06534C82.1249 9.34943 82.0255 9.68182 82.0141 10.0625V12.858C82.0141 13.2784 82.1022 13.6534 82.2783 13.983C82.4545 14.3125 82.7073 14.571 83.0369 14.7585C83.3664 14.946 83.7641 15.0398 84.23 15.0398C84.5539 15.0398 84.8494 14.9943 85.1164 14.9034C85.3891 14.8125 85.6221 14.6818 85.8153 14.5114C86.0085 14.3352 86.1505 14.125 86.2414 13.8807H90.5369C90.3891 14.7898 90.0397 15.5795 89.4886 16.25C88.9374 16.9148 88.2073 17.4318 87.2982 17.8011C86.3948 18.1648 85.338 18.3466 84.1278 18.3466Z" fill="#006747"/>
<path d="M68.5759 23.2898C67.2634 23.2898 66.1384 23.1023 65.2009 22.7273C64.2691 22.358 63.5447 21.8466 63.0276 21.1932C62.5163 20.5455 62.2293 19.8011 62.1668 18.9602H66.7009C66.7464 19.2386 66.86 19.4631 67.0418 19.6335C67.2237 19.804 67.4566 19.9261 67.7407 20C68.0305 20.0795 68.3543 20.1193 68.7123 20.1193C69.3202 20.1193 69.8231 19.9716 70.2208 19.6761C70.6242 19.3807 70.8259 18.8466 70.8259 18.0739V15.858H70.6896C70.5191 16.3011 70.2577 16.679 69.9055 16.9915C69.5532 17.2983 69.1299 17.5341 68.6356 17.6989C68.1413 17.858 67.5986 17.9375 67.0077 17.9375C66.0759 17.9375 65.218 17.7216 64.4339 17.2898C63.6555 16.858 63.0305 16.1733 62.5589 15.2358C62.093 14.2983 61.86 13.0739 61.86 11.5625C61.86 9.98296 62.1043 8.69887 62.593 7.71023C63.0873 6.72159 63.7237 5.99716 64.5021 5.53693C65.2862 5.07671 66.11 4.84659 66.9737 4.84659C67.6214 4.84659 68.1896 4.96023 68.6782 5.1875C69.1668 5.40909 69.5759 5.70739 69.9055 6.08239C70.235 6.45171 70.485 6.85796 70.6555 7.30114H70.7577V5.01705H75.4623V18.0739C75.4623 19.1818 75.1754 20.1222 74.6015 20.8949C74.0333 21.6733 73.2322 22.267 72.1981 22.6761C71.164 23.0852 69.9566 23.2898 68.5759 23.2898ZM68.7464 14.5966C69.1782 14.5966 69.5475 14.4773 69.8543 14.2386C70.1668 13.9943 70.4055 13.6477 70.5702 13.1989C70.7407 12.7443 70.8259 12.1989 70.8259 11.5625C70.8259 10.9148 70.7407 10.3608 70.5702 9.90057C70.4055 9.43466 70.1668 9.07955 69.8543 8.83523C69.5475 8.58523 69.1782 8.46023 68.7464 8.46023C68.3146 8.46023 67.9452 8.58523 67.6384 8.83523C67.3373 9.07955 67.1043 9.43466 66.9396 9.90057C66.7805 10.3608 66.7009 10.9148 66.7009 11.5625C66.7009 12.2102 66.7805 12.7614 66.9396 13.2159C67.1043 13.6648 67.3373 14.0085 67.6384 14.2472C67.9452 14.4801 68.3146 14.5966 68.7464 14.5966Z" fill="#006747"/>
<path d="M52.6129 18.108V5.01705H57.181V7.50568H57.3174C57.556 6.58523 57.9339 5.91193 58.4509 5.4858C58.9737 5.05966 59.5844 4.84659 60.2833 4.84659C60.4879 4.84659 60.6896 4.86364 60.8884 4.89773C61.093 4.92614 61.289 4.96875 61.4765 5.02557V9.03978C61.2435 8.96023 60.9566 8.90057 60.6157 8.8608C60.2748 8.82103 59.9822 8.80114 59.7379 8.80114C59.2776 8.80114 58.8629 8.90625 58.4935 9.11648C58.1299 9.32103 57.843 9.6108 57.6327 9.9858C57.4225 10.3551 57.3174 10.7898 57.3174 11.2898V18.108H52.6129Z" fill="#006747"/>
<path d="M44.284 18.3466C42.8863 18.3466 41.6818 18.0795 40.6704 17.5455C39.6647 17.0057 38.8891 16.233 38.3437 15.2273C37.8039 14.2159 37.534 13.0057 37.534 11.5966C37.534 10.2443 37.8068 9.0625 38.3522 8.05114C38.8977 7.03978 39.6676 6.25284 40.6619 5.69034C41.6562 5.12784 42.8295 4.84659 44.1818 4.84659C45.1704 4.84659 46.0653 5 46.8664 5.30682C47.6675 5.61364 48.3522 6.05966 48.9204 6.64489C49.4886 7.22444 49.9261 7.92898 50.2329 8.75853C50.5397 9.58807 50.6931 10.5227 50.6931 11.5625V12.6534H38.9999V10.0625H46.3636C46.3579 9.6875 46.2613 9.35796 46.0738 9.07387C45.892 8.78409 45.6448 8.55966 45.3323 8.40057C45.0255 8.2358 44.6761 8.15341 44.284 8.15341C43.9033 8.15341 43.5539 8.2358 43.2357 8.40057C42.9176 8.55966 42.6619 8.78125 42.4687 9.06534C42.2812 9.34943 42.1818 9.68182 42.1704 10.0625V12.858C42.1704 13.2784 42.2585 13.6534 42.4346 13.983C42.6107 14.3125 42.8636 14.571 43.1931 14.7585C43.5227 14.946 43.9204 15.0398 44.3863 15.0398C44.7102 15.0398 45.0056 14.9943 45.2727 14.9034C45.5454 14.8125 45.7783 14.6818 45.9715 14.5114C46.1647 14.3352 46.3068 14.125 46.3977 13.8807H50.6931C50.5454 14.7898 50.196 15.5795 49.6448 16.25C49.0937 16.9148 48.3636 17.4318 47.4545 17.8011C46.5511 18.1648 45.4943 18.3466 44.284 18.3466Z" fill="#006747"/>
<path d="M15.441 18.108V5.01705H19.9069V7.50568H20.0433C20.316 6.6875 20.7819 6.03977 21.441 5.5625C22.1001 5.08523 22.8842 4.84659 23.7933 4.84659C24.7137 4.84659 25.5063 5.09091 26.1711 5.57955C26.8359 6.0625 27.2364 6.70455 27.3728 7.50568H27.5092C27.7308 6.70455 28.2023 6.0625 28.9239 5.57955C29.6455 5.09091 30.4921 4.84659 31.4637 4.84659C32.7194 4.84659 33.7364 5.25 34.5148 6.05682C35.2989 6.86364 35.691 7.9375 35.691 9.27841V18.108H30.9864V10.4716C30.9864 9.89773 30.8415 9.44887 30.5518 9.125C30.262 8.79546 29.8728 8.63068 29.3842 8.63068C28.9012 8.63068 28.5177 8.79546 28.2336 9.125C27.9552 9.44887 27.816 9.89773 27.816 10.4716V18.108H23.316V10.4716C23.316 9.89773 23.1711 9.44887 22.8813 9.125C22.5915 8.79546 22.2023 8.63068 21.7137 8.63068C21.3898 8.63068 21.1114 8.70455 20.8785 8.85228C20.6455 9 20.4637 9.21307 20.333 9.49148C20.208 9.76421 20.1455 10.0909 20.1455 10.4716V18.108H15.441Z" fill="#006747"/>
<path d="M0.443115 18.108V0.653412H13.0227V4.47159H5.18175V7.47159H12.3749V11.2898H5.18175V14.2898H12.9886V18.108H0.443115Z" fill="#006747"/>
</svg>
